<svg width="401" height="399" viewBox="0 0 401 399" fill="none" xmlns="http://www.w3.org/2000/svg">
<path fill-rule="evenodd" clip-rule="evenodd" d="M399.272 125.915C394.067 94.9426 379.717 67.4769 356.735 44.4908C286.397 -25.856 169.196 -10.702 118.814 75.2541C90.7284 123.171 91.7305 183.351 121.428 232.243C123.985 236.454 125.69 240.296 125.217 240.782C124.744 241.266 98.4905 263.755 66.8758 290.757C0.807096 347.185 -0.0458511 344.549 0.00132276 363.005C0.034472 375.797 5.12171 381.676 13.8885 389.759C21.9465 397.188 29.1986 399.625 40.9885 398.869C56.5536 397.87 56.8315 397.615 108.365 337.248C133.488 307.821 155.631 281.782 157.574 279.386L161.105 275.029L168.884 279.756C226.149 314.546 295.544 310.029 346.692 268.182C373.667 246.114 393.17 212.198 399.255 176.781C401.575 163.276 401.583 139.659 399.272 125.915ZM386.641 188.607C362.671 274.581 267.744 317.554 187.639 278.695C152.37 261.586 124.739 228.669 113.718 190.631C92.7506 118.268 133.346 41.1474 204.922 17.3681C222.904 11.394 235.785 9.71843 256.981 10.5932C291.737 12.029 321.965 24.8444 347.244 48.8608C359.479 60.4852 367.839 71.6684 375.549 86.7306C387.973 110.998 391.088 125.265 390.448 154.952C390.048 173.521 389.502 178.347 386.641 188.607ZM369.272 135.789C367.539 122.536 364.298 112.032 357.873 98.8446C321.736 24.6735 223.354 7.99823 165.183 66.1826C147.872 83.498 136.777 103.936 131.883 127.523C128.358 144.502 129.252 167.995 134.037 184.199C146.545 226.547 177.827 256.972 220.789 268.575C227.92 270.501 233.943 270.97 250.751 270.91C269.852 270.841 272.82 270.518 282.993 267.398C305.192 260.589 322.151 250.101 337.551 233.653C362.454 207.057 373.952 171.584 369.272 135.789ZM359.073 168.341C353.042 206.573 326.108 240.37 290.572 254.298C263.311 264.983 230.473 264.12 204.312 252.031C172.195 237.19 148.757 208.081 141.847 174.452C139.295 162.038 139.251 140.646 141.75 128.762C150.27 88.2518 181.698 55.2621 222.064 44.4551C237.106 40.4282 262.635 40.4243 277.511 44.4487C311.207 53.5623 339.385 78.238 352.354 109.987C359.36 127.142 361.981 149.905 359.073 168.341ZM341.899 133.728C333.76 92.8603 300.533 62.8557 258.095 58.0509C249.855 57.1175 246.235 57.866 245.136 60.7313C243.421 65.1994 246.462 67.19 256.271 68.0188C296.822 71.4478 329.841 103.838 333.191 143.474C334.22 155.634 337.164 159.519 341.823 154.861C344.231 152.451 344.257 145.564 341.899 133.728ZM104.027 326.916C54.8833 384.591 52.1739 387.325 41.9931 389.523C35.4626 390.932 25.2194 387.318 19.7293 381.667C14.0466 375.817 12.1928 371.266 12.1291 363.005C12.0334 350.56 12.1277 350.46 72.1849 299.372C102.726 273.391 128.74 251.248 129.994 250.164C132.107 248.337 133.013 248.93 142.425 258.287C148.009 263.839 152.577 268.732 152.577 269.159C152.577 269.588 130.73 295.578 104.027 326.916Z" fill="black"/>
</svg>
