<svg width="1251" height="1251" viewBox="0 0 1251 1251" fill="none" xmlns="http://www.w3.org/2000/svg">
<path d="M596 0.743441C473.2 5.81011 350.534 49.8101 251.467 124.21C204 159.81 158 206.077 123.334 252.61C2.40037 415.543 -31.9996 626.077 30.8004 819.277C47.7337 871.143 74.667 926.477 105.6 972.477C237.2 1168.88 468.534 1275.01 701.334 1245.81C830.134 1229.68 945.467 1177.14 1042.53 1090.48C1252 903.41 1310.53 598.477 1185.2 347.277C1129.47 235.81 1044.4 145.277 936 82.6101C854.934 35.6768 752.4 5.01011 664 1.27677C626.267 -0.323226 620 -0.323226 596 0.743441ZM670 96.6101C846.934 111.81 1002.93 212.743 1089.47 367.943C1154 483.943 1172.4 623.943 1139.87 753.943C1116.53 847.543 1069.2 931.277 1001.33 999.277C957.467 1043.28 909.734 1077.28 855.334 1103.41C782.667 1138.21 706.8 1155.28 625.334 1155.28C539.867 1155.28 461.734 1136.74 386 1098.61C284.667 1047.54 202.4 965.143 151.334 863.543C72.9337 707.41 76.667 519.277 161.2 367.943C247.6 213.277 403.2 112.21 578.667 96.7434C597.2 95.1434 651.467 95.1434 670 96.6101Z" fill="black"/>
<path d="M386.534 316.743C383.067 317.277 378.934 318.477 377.2 319.277C371.867 322.077 322.667 371.543 319.6 377.277C315.734 384.343 315.6 400.343 319.2 407.277C320.534 409.81 369.6 459.943 428.134 518.61L534.667 625.277L428.534 731.277C366.934 792.877 321.334 839.543 319.6 842.61C315.2 850.877 315.467 865.943 320.267 873.943C325.467 882.743 372.8 929.143 379.2 931.81C385.734 934.477 399.467 934.61 406.134 931.81C410 930.343 440.134 901.01 518.4 822.877L625.334 715.943L732.4 822.877C810.534 901.01 840.667 930.343 844.534 931.81C851.2 934.61 864.934 934.477 871.467 931.81C877.867 929.143 925.2 882.743 930.4 873.943C935.2 865.943 935.467 850.877 931.067 842.61C929.334 839.543 883.734 792.877 822.134 731.277L716 625.277L822.534 518.61C881.067 459.943 930.134 409.81 931.467 407.277C935.067 400.343 934.934 384.343 931.067 377.277C926.8 369.41 877.867 321.277 871.334 318.477C864.534 315.677 851.6 315.677 844.667 318.61C840.667 320.21 811.467 348.61 732.4 427.677L625.334 534.61L518.4 427.677C456.534 365.81 409.6 320.077 407.334 319.143C401.067 316.61 393.2 315.81 386.534 316.743Z" fill="black"/>
</svg>
