<svg width="619" height="618" viewBox="0 0 619 618" fill="none" xmlns="http://www.w3.org/2000/svg">
<path d="M70.5337 0.743347C67.0671 1.27667 62.9337 2.47668 61.2004 3.27667C55.8671 6.07666 6.66706 55.5433 3.60039 61.2767C-0.266272 68.3433 -0.399605 84.3434 3.20039 91.2767C4.53373 93.8101 53.6004 143.943 112.134 202.61L218.667 309.277L112.534 415.277C50.9337 476.877 5.33373 523.543 3.60039 526.61C-0.799605 534.877 -0.532939 549.943 4.26706 557.943C9.46706 566.743 56.8004 613.143 63.2004 615.81C69.7337 618.477 83.4671 618.61 90.1337 615.81C94.0004 614.343 124.134 585.01 202.4 506.877L309.334 399.943L416.4 506.877C494.534 585.01 524.667 614.343 528.534 615.81C535.2 618.61 548.934 618.477 555.467 615.81C561.867 613.143 609.2 566.743 614.4 557.943C619.2 549.943 619.467 534.877 615.067 526.61C613.334 523.543 567.734 476.877 506.134 415.277L400 309.277L506.534 202.61C565.067 143.943 614.134 93.8101 615.467 91.2767C619.067 84.3434 618.934 68.3433 615.067 61.2767C610.8 53.41 561.867 5.27667 555.334 2.47668C548.534 -0.323364 535.6 -0.323364 528.667 2.60999C524.667 4.21002 495.467 32.61 416.4 111.677L309.334 218.61L202.4 111.677C140.534 49.8101 93.6004 4.07666 91.3337 3.14331C85.0671 0.609985 77.2004 -0.190002 70.5337 0.743347Z" fill="#CCCCCC"/>
</svg>
