<svg width="1301" height="1294" viewBox="0 0 1301 1294" fill="none" xmlns="http://www.w3.org/2000/svg">
<path fill-rule="evenodd" clip-rule="evenodd" d="M1294.41 408.043C1277.54 307.673 1231.06 218.668 1156.61 144.179C928.757 -83.7869 549.095 -34.6788 385.885 243.871C294.905 399.15 298.151 594.169 394.352 752.61C402.637 766.255 408.159 778.705 406.627 780.279C405.095 781.85 320.049 854.727 217.636 942.228C3.61235 1125.09 0.8493 1116.55 1.00212 1176.36C1.1095 1217.81 17.5892 1236.86 45.9886 1263.06C72.0916 1287.13 95.5843 1295.03 133.776 1292.58C184.198 1289.34 185.098 1288.51 352.038 1092.89C433.42 997.527 505.149 913.145 511.444 905.381L522.884 891.26L548.083 906.579C733.588 1019.32 958.387 1004.68 1124.08 869.074C1211.46 797.561 1274.64 687.65 1294.35 572.88C1301.86 529.115 1301.89 452.58 1294.41 408.043ZM1253.49 611.203C1175.84 889.81 868.332 1029.07 608.838 903.141C494.588 847.698 405.078 741.027 369.377 617.761C301.455 383.261 432.961 133.344 664.824 56.2854C723.076 36.9256 764.804 31.4958 833.465 34.3305C946.055 38.9835 1043.97 80.513 1125.86 158.341C1165.5 196.011 1192.58 232.251 1217.55 281.061C1257.8 359.703 1267.89 405.935 1265.82 502.139C1264.52 562.313 1262.76 577.954 1253.49 611.203ZM1197.22 440.039C1191.61 397.092 1181.11 363.054 1160.3 320.318C1043.23 79.9592 724.534 25.9213 536.093 214.474C480.017 270.586 444.076 336.818 428.22 413.253C416.804 468.275 419.699 544.408 435.2 596.917C475.717 734.151 577.052 832.747 716.224 870.347C739.325 876.587 758.836 878.107 813.284 877.913C875.159 877.69 884.774 876.645 917.729 866.533C989.641 844.466 1044.58 810.478 1094.47 757.18C1175.14 670.993 1212.38 556.037 1197.22 440.039ZM1164.18 545.528C1144.65 669.423 1057.4 778.945 942.28 824.082C853.971 858.706 747.593 855.909 662.849 816.735C558.809 768.639 482.883 674.311 460.498 565.33C452.233 525.102 452.088 455.779 460.184 417.27C487.786 285.991 589.592 179.085 720.355 144.064C769.083 131.014 851.782 131.001 899.97 144.043C1009.13 173.576 1100.41 253.54 1142.42 356.426C1165.11 412.018 1173.6 485.783 1164.18 545.528ZM1108.55 433.361C1082.18 300.925 974.549 203.693 837.075 188.122C810.381 185.097 798.655 187.523 795.095 196.808C789.54 211.288 799.39 217.738 831.164 220.424C962.526 231.536 1069.49 336.5 1080.34 464.944C1083.67 504.35 1093.21 516.941 1108.3 501.846C1116.1 494.036 1116.19 471.717 1108.55 433.361ZM337.983 1059.41C178.787 1246.31 170.011 1255.17 137.031 1262.29C115.876 1266.86 82.6938 1255.15 64.9091 1236.83C46.5007 1217.88 40.4954 1203.13 40.2889 1176.36C39.9791 1136.03 40.2846 1135.7 234.835 970.146C333.77 885.955 418.039 814.197 422.103 810.685C428.947 804.763 431.883 806.685 462.373 837.008C480.459 855 495.257 870.855 495.257 872.239C495.257 873.628 424.486 957.852 337.983 1059.41Z" fill="black"/>
</svg>
